<svg version="1" xmlns="http://www.w3.org/2000/svg" width="917.333" height="917.333" viewBox="0 0 688.000000 688.000000"><path d="M307.8 48.1c-55.9 5.9-111.8 29-154.3 63.7-12.9 10.5-24.6 21.4-27.7 25.6-5 7-2.9 16.4 4.6 20 7 3.3 10 2.1 22.2-9.4 43.9-41.3 94.9-65.4 154.9-73.1 14.8-1.9 52.1-1.7 67.5.4 55.2 7.7 105.7 31.1 146.5 68.1l5 4.5-14.5.1c-16.4 0-19.8 1-23.7 6.9-4.2 6.2-2 14.6 4.8 18.4 3.2 1.8 5.1 1.9 36.1 1.3 36.1-.6 37.1-.8 40.8-6.9 1.9-3 2-5.1 1.9-32.2 0-16-.4-31.4-.8-34.3-.9-6.6-3.6-10.3-8.9-12.2-3.7-1.3-4.7-1.3-8.4 0-2.7 1-5 2.7-6.5 4.9-2.2 3.2-2.3 4.4-2.3 19.4v16l-5.7-5.5c-8.2-7.7-23-19.3-35.3-27.5-38.8-26.1-81.7-41.8-130.3-47.8-13.2-1.6-52.2-1.9-65.9-.4zM119.5 210c-11.9 2.5-24.2 9.5-32 18.2-5.6 6.3-9 12-12.4 20.7-2.5 6.5-2.5 6.9-2.9 40.9-.4 38.5 0 41.4 6.5 49.9L82 344v36.5L68.7 388c-16.3 9.2-30.8 18.7-45.4 29.7-12.6 9.5-16.1 13.1-20.1 20.6l-2.7 5.2L.2 469c-.3 25.2-.3 25.6 1.9 28.4 2.4 3.1 7.5 5.6 11.1 5.6 3.7 0 9-3.4 11-7.1 1.6-2.9 1.8-5.9 1.8-23.1 0-10.8.4-20.8 1-22.2 2.1-5.6 33.1-27.5 61.5-43.4 21.7-12.1 20.5-9.7 20.5-42.6 0-14.9-.5-26.7-1.1-29.1-.6-2.3-2.8-5.8-5.2-8.3l-4.2-4.3v-62.4l2.6-5.5c3.4-7.4 7.6-12 14.1-15.6 5.1-2.8 6-2.9 19.5-3.2 13.4-.4 14.5-.2 19.6 2.1 7.4 3.4 13.1 8.8 16.4 15.5l2.8 5.7.3 31.2.3 31.2-3.9 4.3c-2.2 2.4-4.4 5.3-5.1 6.5-.7 1.5-1.1 11-1.1 30 .1 24.1.3 28.3 1.8 31.3 1.9 3.8 4.9 5.9 21.3 14.9 22.7 12.5 53.8 34 57.7 39.8 1.4 2.3 1.8 6 2.2 24.4.6 24.8 1 26.1 8.8 28.9 3.7 1.3 4.7 1.3 8.4 0 2.7-1 5-2.7 6.5-4.9 2.2-3.3 2.3-4.1 2.3-26.1 0-25.1-.7-29.1-6.1-37.4-6.5-9.7-41.5-34.6-70.6-50.1l-5.3-2.8v-18.4c0-18.1.1-18.5 2.5-21.7 1.3-1.8 3.5-5.4 4.7-8.2 2.2-4.7 2.3-6 2.6-36.9.3-25.6 0-33.5-1.2-39.3-3.1-15-11.9-28.1-24.8-36.9-11.5-7.7-18.1-9.5-36.3-9.9-8.2-.2-16.8.1-19 .6zM531.2 211c-19.2 5.1-35.1 20.2-41.2 39-2.5 7.4-2.5 8.1-2.5 42.5 0 34.3 0 35.1 2.3 39.9 1.2 2.8 3.4 6.4 4.7 8.2 2.4 3.2 2.5 3.6 2.5 21.7v18.3l-8.5 4.7c-24 13.2-59.1 37.6-65.4 45.6-7.2 9-7.6 11-7.9 38.1-.3 24.3-.3 24.6 2 28 6.2 9.1 21.3 6.6 23.4-3.9l.7-3.1H663v2.5c0 3.5 5.5 9.3 9.5 10.1 4.6.8 9.9-1.1 13-4.8l2.6-3.1-.3-25.6-.3-25.6-2.7-5.2c-1.6-2.9-4.2-6.8-5.8-8.7-7.1-8-38.8-30.1-61.3-42.6l-11.7-6.5V344l3.5-4.6c6.3-8.2 6.7-11.2 6.3-49.6-.4-34-.4-34.4-2.9-40.9-3.8-9.8-7.5-15.7-14.3-22.5-6.9-6.8-12.8-10.6-22.5-14.2-5.8-2.2-8.6-2.5-22.1-2.9-13.1-.3-16.7 0-22.8 1.7zM126.9 514.9c-12.8.7-15.7 1.8-18.5 7.3-1.5 2.9-1.6 6.8-1.2 35.8.4 27.9.7 33 2.2 35.7 3.2 6.3 10.6 8.8 16.9 5.8 6.5-3 7.1-5.1 7.7-23l.5-15.9 7 6.3c45.1 41 105.7 67.8 167.4 74.1 13 1.3 48.5 1.3 61.1 0 47.9-5 93.8-21.4 133-47.5 19.6-13.1 44.1-33.4 50.1-41.8 5.5-7.6 2.9-17-5.6-20.2-6.5-2.5-10.1-.9-21 9.4-56.4 53.7-131.7 80.4-209.2 74.1-59.7-4.9-115.4-29.1-159.8-69.4l-5-4.5 14.5-.1c16.4 0 19.8-1 23.7-6.9 4.2-6.2 1.9-14.7-4.8-18.3-3-1.6-5.7-1.8-25.4-1.6-12.1.1-27.2.4-33.6.7z"/></svg>