<?xml version="1.0" encoding="UTF-8" standalone="no"?>
<!-- Generator: Adobe Illustrator 19.0.0, SVG Export Plug-In . SVG Version: 6.00 Build 0)  -->

<svg
   xmlns:dc="http://purl.org/dc/elements/1.1/"
   xmlns:cc="http://creativecommons.org/ns#"
   xmlns:rdf="http://www.w3.org/1999/02/22-rdf-syntax-ns#"
   xmlns:svg="http://www.w3.org/2000/svg"
   xmlns="http://www.w3.org/2000/svg"
   xmlns:sodipodi="http://sodipodi.sourceforge.net/DTD/sodipodi-0.dtd"
   xmlns:inkscape="http://www.inkscape.org/namespaces/inkscape"
   version="1.1"
   id="Layer_1"
   x="0px"
   y="0px"
   viewBox="0 0 240.50185 74.458178"
   xml:space="preserve"
   inkscape:version="0.91 r13725"
   sodipodi:docname="logo.svg"
   width="240.50185"
   height="74.458176"
   inkscape:export-filename="D:\Google Drive\ICA\I-Project\Art\logo.png"
   inkscape:export-xdpi="90"
   inkscape:export-ydpi="90"><metadata
     id="metadata4184"><rdf:RDF><cc:Work
         rdf:about=""><dc:format>image/svg+xml</dc:format><dc:type
           rdf:resource="http://purl.org/dc/dcmitype/StillImage" /><dc:title /></cc:Work></rdf:RDF></metadata><defs
     id="defs4182" /><sodipodi:namedview
     pagecolor="#ffffff"
     bordercolor="#666666"
     borderopacity="1"
     objecttolerance="10"
     gridtolerance="10"
     guidetolerance="10"
     inkscape:pageopacity="0"
     inkscape:pageshadow="2"
     inkscape:window-width="1920"
     inkscape:window-height="1017"
     id="namedview4180"
     showgrid="false"
     fit-margin-top="0"
     fit-margin-left="0"
     fit-margin-right="0"
     fit-margin-bottom="0"
     inkscape:zoom="1.7330881"
     inkscape:cx="158.38779"
     inkscape:cy="-151.15035"
     inkscape:window-x="-8"
     inkscape:window-y="-8"
     inkscape:window-maximized="1"
     inkscape:current-layer="g4139" /><g
     id="g4137"
     transform="translate(0,-19.445377)"><g
       id="g4139"><g
         id="g4186"
         transform="matrix(0.17614377,0,0,0.17614377,0,13.580936)"><path
           d="m 480.2,347.706 0,-24.8 c 0,-5.2 -2.3,-10.2 -6.4,-13.5 -22.4,-18.4 -46.5,-30.6 -51.5,-33 -0.6,-0.3 -0.9,-0.8 -0.9,-1.5 l 0,-34.9 c 4.4,-2.9 7.3,-7.9 7.3,-13.6 l 0,-36.2 c 0,-18 -14.6,-32.6 -32.6,-32.6 l -3.9,0 -3.9,0 c -18,0 -32.6,14.6 -32.6,32.6 l 0,36.2 c 0,5.7 2.9,10.6 7.3,13.6 l 0,34.9 c 0,0.6 -0.3,1.2 -0.9,1.5 -4.9,2.4 -29.1,14.6 -51.5,33 -4,3.3 -6.4,8.3 -6.4,13.5 l 0,24.8"
           style="fill:#f2552c;fill-opacity:0.53333303"
           id="XMLID_1866_"
           inkscape:connector-curvature="0" /><path
           id="path4142"
           d="m 103.2,109.606 c 36.1,-36.9 84.4,-57.6 136,-58.2 51.1,-0.6 99.5,18.6 136.2,54 l -20.4,0.2 c -5,0.1 -9,4.2 -9,9.2 0.1,5 4.1,9 9.1,9 l 0.1,0 42.3,-0.5 c 5,-0.1 9,-4.2 9,-9.2 l -0.5,-42.3 c -0.1,-5 -4.2,-8.9 -9.2,-9 -5,0.1 -9,4.2 -9,9.2 l 0.2,20.5 c -40.1,-38.8 -93,-59.8 -149,-59.2 -56.5,0.6 -109.3,23.2 -148.7,63.6 -3.5,3.6 -3.4,9.3 0.1,12.8 3.5,3.6 9.3,3.5 12.8,-0.1 z"
           style="fill:#f2552c;fill-opacity:1"
           inkscape:connector-curvature="0" /><path
           id="path4144"
           d="m 94.9,417.306 -0.2,-20.5 c 39.7,38.3 91.6,59.2 146.7,59.2 0.8,0 1.7,0 2.5,0 56.5,-0.6 109.3,-23.2 148.7,-63.6 3.5,-3.6 3.4,-9.3 -0.1,-12.8 -3.6,-3.5 -9.3,-3.4 -12.8,0.1 -36.1,36.9 -84.4,57.6 -136,58.2 -51.2,0.6 -99.5,-18.6 -136.2,-54 l 20.4,-0.2 c 5,-0.1 9,-4.2 9,-9.2 -0.1,-5 -4.1,-9 -9.1,-9 l -0.1,0 -42.3,0.5 c -2.4,0 -4.7,1 -6.4,2.7 -1.7,1.7 -2.6,4 -2.6,6.4 l 0.5,42.3 c 0.1,5 4.1,9 9.1,9 l 0.1,0 c 4.9,0 8.9,-4.1 8.8,-9.1 z"
           style="fill:#f2552c;fill-opacity:1"
           inkscape:connector-curvature="0" /><path
           id="path4146"
           d="m 76.6,240.006 c 0,-3 -1.5,-5.9 -4,-7.5 -2,-1.4 -3.2,-3.6 -3.2,-6 l 0,-36.2 c 0,-13 10.5,-23.5 23.5,-23.5 l 7.8,0 c 13,0 23.5,10.5 23.5,23.5 l 0,36.2 c 0,2.4 -1.2,4.7 -3.2,6 -2.5,1.7 -4,4.5 -4,7.5 l 0,34.9 c 0,4 2.3,7.8 6,9.6 4.5,2.2 28,14.1 49.7,31.9 1.9,1.6 3.1,4 3.1,6.5 l 0,24.8 c 0,5 4.1,9.1 9.1,9.1 5,0 9.1,-4.1 9.1,-9.1 l 0,-24.8 c 0,-8 -3.5,-15.5 -9.7,-20.5 -19.2,-15.8 -39.8,-27.2 -49.1,-32 l 0,-26.1 c 4.6,-4.7 7.3,-11 7.3,-17.8 l 0,-36.2 c 0,-23 -18.7,-41.6 -41.6,-41.6 l -7.8,0 c -23,0 -41.6,18.7 -41.6,41.6 l 0,36.2 c 0,6.7 2.7,13.1 7.3,17.8 l 0,26.1 c -9.2,4.8 -29.8,16.2 -49.1,32 -6.2,5.1 -9.7,12.5 -9.7,20.5 l 0,24.8 c 0,5 4.1,9.1 9.1,9.1 5,0 9.1,-4.1 9.1,-9.1 l 0,-24.8 c 0,-2.6 1.1,-4.9 3.1,-6.5 21.7,-17.8 45.2,-29.7 49.7,-31.9 3.6,-1.8 6,-5.5 6,-9.6 l 0,-34.9 -0.4,0 0,0 z"
           style="fill:#f2552c;fill-opacity:1"
           inkscape:connector-curvature="0" /><path
           id="path4148"
           d="m 480.2,356.806 c 5,0 9.1,-4.1 9.1,-9.1 l 0,-24.8 c 0,-8 -3.5,-15.5 -9.7,-20.5 -19.2,-15.8 -39.8,-27.2 -49.1,-32 l 0,-26.1 c 4.6,-4.7 7.3,-11 7.3,-17.8 l 0,-36.2 c 0,-23 -18.7,-41.6 -41.6,-41.6 l -7.8,0 c -23,0 -41.6,18.7 -41.6,41.6 l 0,36.2 c 0,6.7 2.7,13.1 7.3,17.8 l 0,26.1 c -9.2,4.8 -29.8,16.2 -49.1,32 -6.2,5.1 -9.7,12.5 -9.7,20.5 l 0,24.8 c 0,5 4.1,9.1 9.1,9.1 5,0 9.1,-4.1 9.1,-9.1 l 0,-24.8 c 0,-2.6 1.1,-4.9 3.1,-6.5 21.7,-17.8 45.2,-29.7 49.7,-31.9 3.6,-1.8 6,-5.5 6,-9.6 l 0,-34.9 c 0,-3 -1.5,-5.9 -4,-7.5 -2,-1.4 -3.2,-3.6 -3.2,-6 l 0,-36.2 c 0,-13 10.5,-23.5 23.5,-23.5 l 7.8,0 c 13,0 23.5,10.5 23.5,23.5 l 0,36.2 c 0,2.4 -1.2,4.7 -3.2,6 -2.5,1.7 -4,4.5 -4,7.5 l 0,34.9 c 0,4 2.3,7.8 6,9.6 4.5,2.2 28,14.1 49.7,31.9 1.9,1.6 3.1,4 3.1,6.5 l 0,24.8 c -0.3,5 3.7,9.1 8.7,9.1 z"
           style="fill:#f2552c;fill-opacity:1"
           inkscape:connector-curvature="0" /></g><text
         xml:space="preserve"
         style="font-style:normal;font-weight:normal;font-size:30px;line-height:115.99999666%;font-family:sans-serif;letter-spacing:0px;word-spacing:0px;fill:#000000;fill-opacity:1;stroke:none;stroke-width:1px;stroke-linecap:butt;stroke-linejoin:miter;stroke-opacity:1"
         x="90.589737"
         y="50.776413"
         id="text4193"
         sodipodi:linespacing="116%"><tspan
           sodipodi:role="line"
           id="tspan4195"
           x="90.589737"
           y="50.776413"
           style="font-style:normal;font-variant:normal;font-weight:bold;font-stretch:normal;font-size:30px;line-height:115.99999666%;font-family:'Trebuchet MS';-inkscape-font-specification:'Trebuchet MS Bold';fill:#f2552c;fill-opacity:1">Eenmaal-</tspan><tspan
           sodipodi:role="line"
           x="90.589737"
           y="85.576408"
           id="tspan4197"
           style="font-style:normal;font-variant:normal;font-weight:bold;font-stretch:normal;font-size:30px;line-height:115.99999666%;font-family:'Trebuchet MS';-inkscape-font-specification:'Trebuchet MS Bold';fill:#f2552c;fill-opacity:1">Andermaal</tspan></text>
</g></g><g
     id="g4150"
     transform="translate(0,-19.445377)" /><g
     id="g4152"
     transform="translate(0,-19.445377)" /><g
     id="g4154"
     transform="translate(0,-19.445377)" /><g
     id="g4156"
     transform="translate(0,-19.445377)" /><g
     id="g4158"
     transform="translate(0,-19.445377)" /><g
     id="g4160"
     transform="translate(0,-19.445377)" /><g
     id="g4162"
     transform="translate(0,-19.445377)" /><g
     id="g4164"
     transform="translate(0,-19.445377)" /><g
     id="g4166"
     transform="translate(0,-19.445377)" /><g
     id="g4168"
     transform="translate(0,-19.445377)" /><g
     id="g4170"
     transform="translate(0,-19.445377)" /><g
     id="g4172"
     transform="translate(0,-19.445377)" /><g
     id="g4174"
     transform="translate(0,-19.445377)" /><g
     id="g4176"
     transform="translate(0,-19.445377)" /><g
     id="g4178"
     transform="translate(0,-19.445377)" /></svg>